<svg xmlns="http://www.w3.org/2000/svg" width="112" height="112" fill="none" viewBox="0 0 112 112"><g filter="url(#filter0_d)"><circle cx="56" cy="56" r="36" fill="#F9FAFC"/></g><path fill="#1F2D3D" d="M51.2268 63.6055V49.0195C51.2268 48.2146 52.1173 47.7285 52.7944 48.1637L64.139 55.4567C64.762 55.8572 64.762 56.7679 64.139 57.1683L52.7944 64.4614C52.1173 64.8966 51.2268 64.4105 51.2268 63.6055Z"/><path fill="#1F2D3D" fill-rule="evenodd" d="M56.3138 36.9821C45.6379 36.9821 36.9833 45.6366 36.9833 56.3125C36.9833 66.9884 45.6379 75.643 56.3138 75.643C66.9897 75.643 75.6442 66.9884 75.6442 56.3125C75.6442 45.6366 66.9897 36.9821 56.3138 36.9821ZM33.9312 56.3125C33.9312 43.951 43.9522 33.9299 56.3138 33.9299C68.6753 33.9299 78.6964 43.951 78.6964 56.3125C78.6964 68.6741 68.6753 78.6951 56.3138 78.6951C43.9522 78.6951 33.9312 68.6741 33.9312 56.3125Z" clip-rule="evenodd"/><defs><filter id="filter0_d" width="112" height="112" x="0" y="0" color-interpolation-filters="sRGB" filterUnits="userSpaceOnUse"><feFlood flood-opacity="0" result="BackgroundImageFix"/><feColorMatrix in="SourceAlpha" type="matrix" values="0 0 0 0 0 0 0 0 0 0 0 0 0 0 0 0 0 0 127 0"/><feOffset/><feGaussianBlur stdDeviation="10"/><feColorMatrix type="matrix" values="0 0 0 0 0 0 0 0 0 0 0 0 0 0 0 0 0 0 0.15 0"/><feBlend in2="BackgroundImageFix" mode="normal" result="effect1_dropShadow"/><feBlend in="SourceGraphic" in2="effect1_dropShadow" mode="normal" result="shape"/></filter></defs></svg>