<?xml version="1.0" encoding="UTF-8"?>
<svg width="222px" height="158px" viewBox="0 0 222 158" version="1.1" xmlns="http://www.w3.org/2000/svg" xmlns:xlink="http://www.w3.org/1999/xlink">
    <!-- Generator: Sketch 48.2 (47327) - http://www.bohemiancoding.com/sketch -->
    <title>browser</title>
    <desc>Created with Sketch.</desc>
    <defs></defs>
    <g id="icons" stroke="none" stroke-width="1" fill="none" fill-rule="evenodd" transform="translate(-637.000000, -518.000000)">
        <g id="browser" transform="translate(641.000000, 522.000000)">
            <rect id="Rectangle-2" stroke="#8492A6" stroke-width="7" fill="#8492A6" x="0" y="0" width="214" height="150" rx="7"></rect>
            <path d="M2,20 L212,20 L212,142 C212,145.313708 209.313708,148 206,148 L8,148 C4.6862915,148 2,145.313708 2,142 L2,20 Z" id="Rectangle-2" fill="#EFF2F7"></path>
            <rect id="Rectangle" fill="#E0E6ED" x="14" y="31" width="187" height="26" rx="2"></rect>
            <rect id="Rectangle" fill="#E0E6ED" x="14" y="66" width="52" height="72" rx="2"></rect>
            <rect id="Rectangle" fill="#E0E6ED" x="82" y="67" width="52" height="72" rx="2"></rect>
            <rect id="Rectangle" fill="#E0E6ED" x="149" y="66" width="52" height="72" rx="2"></rect>
            <circle id="Oval-2" fill="#FF4949" cx="8" cy="8" r="3"></circle>
            <circle id="Oval-2" fill="#FFC82C" cx="19" cy="8" r="3"></circle>
            <circle id="Oval-2" fill="#13CE66" cx="30" cy="8" r="3"></circle>
            <rect id="Rectangle-3" fill="#EFF2F7" x="38" y="5" width="9" height="9" rx="4.5"></rect>
            <rect id="Rectangle-3" fill="#EFF2F7" x="52" y="5" width="9" height="9" rx="4.5"></rect>
            <rect id="Rectangle-3" fill="#EFF2F7" x="191" y="5" width="14" height="9" rx="4.5"></rect>
            <rect id="Rectangle-3" fill="#EFF2F7" x="66" y="5" width="120" height="9" rx="4.5"></rect>
            <path d="M36.7149942,100.722355 L106.520079,116.399253 L172.533514,106.968843 L106.4736,48.4538197 L36.7149942,100.722355 Z" id="mousepath" stroke-opacity="0" stroke="#979797"></path>
        </g>
    </g>
  <g id="icons" stroke="none" stroke-width="1" fill="none" fill-rule="evenodd" transform="translate(-691.000000, -692.000000)">
    <polygon id="mousepointer" fill="#3C4858" transform="translate(699.030906, 704.780294) rotate(-32.000000) translate(-699.030906, -704.780294) " points="699.030906 690.487998 707.824207 709.083671 705.937195 708.721709 700.55016 707.688381 700.55016 719.07259 697.212647 719.07259 697.212647 707.688381 690.237604 709.083671"></polygon>
    <animateMotion
      dur="3s"
      repeatCount="indefinite"
      calcMode="linear">
      <mpath xlink:href="#mousepath"/>

    </animateMotion>
  </g>
</svg>
